Coordinates
version=1
nRows=10
nColumns=22
inDegrees=yes

Units are S.I. units (second, meters, Newtons, ...)
If the header above contains a line with 'inDegrees', this indicates whether rotational values are in degrees (yes) or radians (no).

endheader
time	pelvis_tilt	pelvis_list	pelvis_rotation	pelvis_tx	pelvis_ty	pelvis_tz	hip_flexion_r	hip_adduction_r	hip_rotation_r	knee_angle_r	ankle_angle_r	subtalar_angle_r	hip_flexion_l	hip_adduction_l	hip_rotation_l	knee_angle_l	ankle_angle_l	subtalar_angle_l	lumbar_extension	lumbar_bending	lumbar_rotation
      0.01000000	     -8.48275848	     -0.37720573	     -8.93673048	     -1.07303356	      0.88507791	     -0.50289458	      7.72247386	     -3.16924694	     -1.24608723	     -7.43129578	     11.74026173	      0.07069607	      5.71670741	     -5.16192782	     -6.52150715	     -7.06332759	     12.44601161	      6.06317114	      3.07939269	      0.90594827	     11.74311759
      0.02000000	     -8.47574077	     -0.37864482	     -8.91433251	     -1.07315789	      0.88509457	     -0.50304438	      7.72462718	     -3.17769235	     -1.26828190	     -7.43613375	     11.73456583	      0.06842087	      5.71675735	     -5.15243836	     -6.51692610	     -7.04970586	     12.44056940	      6.06476961	      3.08368193	      0.89610820	     11.78602953
      0.03000000	     -8.46665416	     -0.37551569	     -8.88694041	     -1.07329651	      0.88511237	     -0.50323557	      7.73175306	     -3.19442862	     -1.29963866	     -7.45131519	     11.72609549	      0.06517396	      5.71044353	     -5.13402196	     -6.50728807	     -7.02167202	     12.42841484	      6.06769423	      3.08748681	      0.88186992	     11.83335486
      0.04000000	     -8.45051188	     -0.35844956	     -8.85027972	     -1.07344115	      0.88513539	     -0.50346910	      7.74371812	     -3.23029404	     -1.33639693	     -7.48827622	     11.73429156	      0.06026766	      5.68750324	     -5.09427142	     -6.48047093	     -6.96506761	     12.38956425	      6.07240583	      3.08667278	      0.85272038	     11.86019263
      0.05000000	     -8.44009772	     -0.35926714	     -8.81262808	     -1.07360668	      0.88515017	     -0.50371275	      7.74672359	     -3.24563755	     -1.36328477	     -7.49858524	     11.73193203	      0.05885009	      5.68756193	     -5.07724671	     -6.46675247	     -6.94560966	     12.38210052	      6.07355728	      3.08734499	      0.84462376	     11.90871012
      0.06000000	     -8.42313810	     -0.33988090	     -8.76314669	     -1.07376712	      0.88516710	     -0.50400461	      7.76401565	     -3.28894623	     -1.41419432	     -7.54691695	     11.74152554	      0.05684418	      5.66633346	     -5.03134219	     -6.42520384	     -6.88676044	     12.34568488	      6.07634509	      3.08475511	      0.81629055	     11.92713452
      0.07000000	     -8.40891540	     -0.32779241	     -8.71289522	     -1.07394916	      0.88518194	     -0.50430349	      7.77824955	     -3.32362354	     -1.45578229	     -7.58353799	     11.74898066	      0.05829777	      5.65917132	     -4.99495948	     -6.38819900	     -6.84951589	     12.32280046	      6.07622891	      3.08035023	      0.79611254	     11.95707051
      0.08000000	     -8.39659603	     -0.31593895	     -8.65968125	     -1.07415346	      0.88519395	     -0.50461024	      7.79812576	     -3.35828067	     -1.49547419	     -7.62493960	     11.75646370	      0.06160921	      5.65882926	     -4.95937085	     -6.34682801	     -6.81762558	     12.29984615	      6.07597269	      3.07438679	      0.77562089	     11.98313135
      0.09000000	     -8.38444610	     -0.31273075	     -8.61209661	     -1.07437517	      0.88521003	     -0.50491786	      7.81279815	     -3.38306437	     -1.52008892	     -7.65447865	     11.75375110	      0.06343948	      5.66750631	     -4.93415883	     -6.31222522	     -6.80613314	     12.28808084	      6.07690439	      3.06396652	      0.76642055	     12.02395285
      0.10000000	     -8.37074084	     -0.30448146	     -8.55951142	     -1.07460134	      0.88522862	     -0.50521793	      7.83298915	     -3.41403038	     -1.55195799	     -7.69757894	     11.74972486	      0.06536796	      5.67497498	     -4.90444742	     -6.26563119	     -6.79212223	     12.27310067	      6.07887784	      3.05319907	      0.74620867	     12.06148465
